HIERARCHY
ROOT Hips
{
	OFFSET 0.000000 97.167313 0.000000
	CHANNELS 6 Xposition Yposition Zposition Xrotation Yrotation Zrotation
	JOINT Spine
	{
		OFFSET 0.000000 13.784798 0.064400
		CHANNELS 3 Xrotation Yrotation Zrotation
		JOINT Spine1
		{
			OFFSET 0.000000 12.037903 0.404700
			CHANNELS 3 Xrotation Yrotation Zrotation
			JOINT Spine2
			{
				OFFSET 0.000000 17.795601 0.420200
				CHANNELS 3 Xrotation Yrotation Zrotation
				JOINT Neck
				{
					OFFSET 0.000000 39.131302 11.954600
					CHANNELS 3 Xrotation Yrotation Zrotation
					JOINT Head
					{
						OFFSET 0.000000 14.456192 15.627699
						CHANNELS 3 Xrotation Yrotation Zrotation
						JOINT HeadTop_End
						{
							OFFSET 0.000000 15.703506 7.603401
							CHANNELS 3 Xrotation Yrotation Zrotation
							End Site
							{
								OFFSET 0.000000 17.447403 0.000000
							}
						}
					}
				}
				JOINT LeftShoulder
				{
					OFFSET 17.399500 24.608795 1.168800
					CHANNELS 3 Xrotation Yrotation Zrotation
					JOINT LeftArm
					{
						OFFSET 18.980635 5.765305 1.818600
						CHANNELS 3 Xrotation Yrotation Zrotation
						JOINT LeftForeArm
						{
							OFFSET 49.290169 0.000000 0.000000
							CHANNELS 3 Xrotation Yrotation Zrotation
							JOINT LeftHand
							{
								OFFSET 31.562012 0.000000 0.000000
								CHANNELS 3 Xrotation Yrotation Zrotation
								JOINT LeftHandThumb1
								{
									OFFSET 6.133995 -4.388519 7.076070
									CHANNELS 3 Xrotation Yrotation Zrotation
									JOINT LeftHandThumb2
									{
										OFFSET 6.037666 -3.485840 3.485847
										CHANNELS 3 Xrotation Yrotation Zrotation
										JOINT LeftHandThumb3
										{
											OFFSET 6.496506 -3.750763 3.750761
											CHANNELS 3 Xrotation Yrotation Zrotation
											JOINT LeftHandThumb4
											{
												OFFSET 5.616882 -3.242905 3.242910
												CHANNELS 3 Xrotation Yrotation Zrotation
												End Site
												{
													OFFSET -1.254608 7.132141 0.375429
												}
											}
										}
									}
								}
								JOINT LeftHandPinky1
								{
									OFFSET 18.920792 -0.453171 -11.426712
									CHANNELS 3 Xrotation Yrotation Zrotation
									JOINT LeftHandPinky2
									{
										OFFSET 4.919586 0.000000 0.000000
										CHANNELS 3 Xrotation Yrotation Zrotation
										JOINT LeftHandPinky3
										{
											OFFSET 5.233047 0.000000 0.000000
											CHANNELS 3 Xrotation Yrotation Zrotation
											JOINT LeftHandPinky4
											{
												OFFSET 5.571716 0.000000 0.000000
												CHANNELS 3 Xrotation Yrotation Zrotation
												End Site
												{
													OFFSET -3.459808 4.342407 -0.466164
												}
											}
										}
									}
								}
								JOINT LeftHandRing1
								{
									OFFSET 22.726120 -0.094986 -6.500475
									CHANNELS 3 Xrotation Yrotation Zrotation
									JOINT LeftHandRing2
									{
										OFFSET 6.408615 0.000000 0.000000
										CHANNELS 3 Xrotation Yrotation Zrotation
										JOINT LeftHandRing3
										{
											OFFSET 6.150223 0.000000 0.000000
											CHANNELS 3 Xrotation Yrotation Zrotation
											JOINT LeftHandRing4
											{
												OFFSET 6.145386 0.000000 0.000000
												CHANNELS 3 Xrotation Yrotation Zrotation
												End Site
												{
													OFFSET -3.671402 4.923981 -0.202372
												}
											}
										}
									}
								}
								JOINT LeftHandMiddle1
								{
									OFFSET 23.373947 0.000000 0.000001
									CHANNELS 3 Xrotation Yrotation Zrotation
									JOINT LeftHandMiddle2
									{
										OFFSET 6.996567 0.000000 0.000000
										CHANNELS 3 Xrotation Yrotation Zrotation
										JOINT LeftHandMiddle3
										{
											OFFSET 7.015945 0.000000 0.000000
											CHANNELS 3 Xrotation Yrotation Zrotation
											JOINT LeftHandMiddle4
											{
												OFFSET 7.721573 0.000000 0.000000
												CHANNELS 3 Xrotation Yrotation Zrotation
												End Site
												{
													OFFSET -4.651108 6.158463 0.251582
												}
											}
										}
									}
								}
								JOINT LeftHandIndex1
								{
									OFFSET 21.310577 -0.490082 6.209344
									CHANNELS 3 Xrotation Yrotation Zrotation
									JOINT LeftHandIndex2
									{
										OFFSET 7.536453 0.000000 0.000000
										CHANNELS 3 Xrotation Yrotation Zrotation
										JOINT LeftHandIndex3
										{
											OFFSET 7.512344 0.000000 0.000000
											CHANNELS 3 Xrotation Yrotation Zrotation
											JOINT LeftHandIndex4
											{
												OFFSET 10.212402 0.000000 0.000001
												CHANNELS 3 Xrotation Yrotation Zrotation
												End Site
												{
													OFFSET -5.180801 8.690506 1.388433
												}
											}
										}
									}
								}
							}
						}
					}
				}
				JOINT RightShoulder
				{
					OFFSET -17.399500 24.608795 1.168800
					CHANNELS 3 Xrotation Yrotation Zrotation
					JOINT RightArm
					{
						OFFSET -18.980635 5.765305 1.818600
						CHANNELS 3 Xrotation Yrotation Zrotation
						JOINT RightForeArm
						{
							OFFSET -49.290169 0.000000 0.000000
							CHANNELS 3 Xrotation Yrotation Zrotation
							JOINT RightHand
							{
								OFFSET -31.562012 0.000000 0.000000
								CHANNELS 3 Xrotation Yrotation Zrotation
								JOINT RightHandThumb1
								{
									OFFSET -6.133995 -4.388519 7.076070
									CHANNELS 3 Xrotation Yrotation Zrotation
									JOINT RightHandThumb2
									{
										OFFSET -6.037666 -3.485840 3.485847
										CHANNELS 3 Xrotation Yrotation Zrotation
										JOINT RightHandThumb3
										{
											OFFSET -6.496506 -3.750763 3.750761
											CHANNELS 3 Xrotation Yrotation Zrotation
											JOINT RightHandThumb4
											{
												OFFSET -5.616882 -3.242905 3.242910
												CHANNELS 3 Xrotation Yrotation Zrotation
												End Site
												{
													OFFSET 1.254608 7.132141 0.375429
												}
											}
										}
									}
								}
								JOINT RightHandIndex1
								{
									OFFSET -21.310577 -0.490082 6.209344
									CHANNELS 3 Xrotation Yrotation Zrotation
									JOINT RightHandIndex2
									{
										OFFSET -7.536453 0.000000 0.000000
										CHANNELS 3 Xrotation Yrotation Zrotation
										JOINT RightHandIndex3
										{
											OFFSET -7.512344 0.000000 0.000000
											CHANNELS 3 Xrotation Yrotation Zrotation
											JOINT RightHandIndex4
											{
												OFFSET -10.212402 0.000000 0.000001
												CHANNELS 3 Xrotation Yrotation Zrotation
												End Site
												{
													OFFSET 5.180801 8.690506 1.388433
												}
											}
										}
									}
								}
								JOINT RightHandMiddle1
								{
									OFFSET -23.373947 0.000000 0.000001
									CHANNELS 3 Xrotation Yrotation Zrotation
									JOINT RightHandMiddle2
									{
										OFFSET -6.996567 0.000000 0.000000
										CHANNELS 3 Xrotation Yrotation Zrotation
										JOINT RightHandMiddle3
										{
											OFFSET -7.015945 0.000000 0.000000
											CHANNELS 3 Xrotation Yrotation Zrotation
											JOINT RightHandMiddle4
											{
												OFFSET -7.721573 0.000000 0.000000
												CHANNELS 3 Xrotation Yrotation Zrotation
												End Site
												{
													OFFSET 4.651108 6.158463 0.251582
												}
											}
										}
									}
								}
								JOINT RightHandRing1
								{
									OFFSET -22.726120 -0.094986 -6.500475
									CHANNELS 3 Xrotation Yrotation Zrotation
									JOINT RightHandRing2
									{
										OFFSET -6.408615 0.000000 0.000000
										CHANNELS 3 Xrotation Yrotation Zrotation
										JOINT RightHandRing3
										{
											OFFSET -6.150223 0.000000 0.000000
											CHANNELS 3 Xrotation Yrotation Zrotation
											JOINT RightHandRing4
											{
												OFFSET -6.145386 0.000000 0.000000
												CHANNELS 3 Xrotation Yrotation Zrotation
												End Site
												{
													OFFSET 3.671402 4.923981 -0.202372
												}
											}
										}
									}
								}
								JOINT RightHandPinky1
								{
									OFFSET -18.920792 -0.453171 -11.426712
									CHANNELS 3 Xrotation Yrotation Zrotation
									JOINT RightHandPinky2
									{
										OFFSET -4.919586 0.000000 0.000000
										CHANNELS 3 Xrotation Yrotation Zrotation
										JOINT RightHandPinky3
										{
											OFFSET -5.233047 0.000000 0.000000
											CHANNELS 3 Xrotation Yrotation Zrotation
											JOINT RightHandPinky4
											{
												OFFSET -5.571716 0.000000 0.000000
												CHANNELS 3 Xrotation Yrotation Zrotation
												End Site
												{
													OFFSET 3.459808 4.342407 -0.466164
												}
											}
										}
									}
								}
							}
						}
					}
				}
			}
		}
	}
	JOINT LeftUpLeg
	{
		OFFSET 19.899099 -7.885101 -3.429500
		CHANNELS 3 Xrotation Yrotation Zrotation
		JOINT LeftLeg
		{
			OFFSET 1.745560 -36.997807 10.304700
			CHANNELS 3 Xrotation Yrotation Zrotation
			JOINT LeftFoot
			{
				OFFSET -1.745558 -29.803308 -13.615400
				CHANNELS 3 Xrotation Yrotation Zrotation
				JOINT LeftToeBase
				{
					OFFSET 1.181900 -18.539904 15.226099
					CHANNELS 3 Xrotation Yrotation Zrotation
					JOINT LeftToe_End
					{
						OFFSET -0.863701 1.402801 16.534700
						CHANNELS 3 Xrotation Yrotation Zrotation
						End Site
						{
							OFFSET 0.000000 16.616566 0.000000
						}
					}
				}
			}
		}
	}
	JOINT RightUpLeg
	{
		OFFSET -19.899099 -7.885101 -3.429500
		CHANNELS 3 Xrotation Yrotation Zrotation
		JOINT RightLeg
		{
			OFFSET -1.745560 -36.997807 10.304700
			CHANNELS 3 Xrotation Yrotation Zrotation
			JOINT RightFoot
			{
				OFFSET 1.745558 -29.803308 -13.615400
				CHANNELS 3 Xrotation Yrotation Zrotation
				JOINT RightToeBase
				{
					OFFSET -1.181900 -18.539904 15.226099
					CHANNELS 3 Xrotation Yrotation Zrotation
					JOINT RightToe_End
					{
						OFFSET 0.863701 1.402801 16.534700
						CHANNELS 3 Xrotation Yrotation Zrotation
						End Site
						{
							OFFSET 0.000000 16.616566 0.000000
						}
					}
				}
			}
		}
	}
}
MOTION
Frames: 5
Frame Time: 0.033333
0.190538 115.238556 9.028458 -81.950754 -4.221362 -2.428872 3.527033 -0.546796 -1.052592 6.936999 -0.542787 0.927019 6.941133 -0.539960 0.900405 7.090535 0.586139 1.300315 28.758631 10.243994 -6.605642 0.000000 0.000000 -0.000000 0.870907 -1.093086 -13.676110 22.612928 -18.732690 -35.279915 0.005703 -88.640843 0.005737 -43.895095 -1.798674 -15.618952 5.344988 8.493539 -4.911121 6.377062 15.562193 1.627040 -4.822084 19.918193 18.061283 0.000001 -0.000001 -0.000002 4.512942 11.527411 -55.248458 5.178658 5.812423 -83.389602 1.703931 4.131097 -44.814029 0.000001 -0.000003 0.000001 5.520742 8.620502 -64.859162 6.490839 5.816093 -96.288182 2.069442 4.468018 -49.686546 0.000001 -0.000002 0.000005 7.174006 9.766382 -60.516364 6.965796 5.744257 -101.001511 0.814280 2.981383 -30.546156 -0.000002 -0.000002 -0.000001 2.313273 6.195354 -29.868240 4.012452 5.555618 -71.655433 0.304743 1.866593 -18.543334 -0.000001 0.000003 0.000001 0.156891 7.548905 14.686923 33.006186 31.392512 25.778348 0.000110 98.107464 -0.000079 -34.560679 17.977287 23.053558 -4.641070 5.737693 -12.067285 6.358365 -14.447594 -2.112224 -2.916282 -51.629072 -24.519973 -0.000005 -0.000001 -0.000000 -1.747557 0.781614 24.100449 0.607748 -2.302209 29.571772 0.624072 -2.330730 29.975832 -0.000000 -0.000003 -0.000002 0.454849 -4.185391 24.092304 0.623778 -2.330218 29.968555 0.623770 -2.330220 29.968548 -0.000001 -0.000000 -0.000001 0.319945 -3.850110 19.646841 0.623772 -2.330221 29.968565 0.623779 -2.330220 29.968555 0.000000 0.000001 -0.000002 0.310564 -3.823650 19.301811 0.443426 -1.985132 25.181342 0.443441 -1.985141 25.181342 0.000001 0.000000 0.000007 -19.634577 13.459024 23.795725 14.756808 2.493717 -1.059128 27.356122 29.670864 -29.088669 1.049238 -0.000019 0.000016 0.000001 0.000001 -0.000001 -17.424856 -10.764408 -14.119728 7.790458 -0.688083 0.572125 37.119571 -28.433856 30.401059 -7.647319 0.000015 0.000004 -0.000000 -0.000001 0.000001 
0.191777 115.235886 9.032639 -81.974735 -4.207322 -2.419691 3.520933 -0.554979 -1.051559 6.928120 -0.562112 0.920220 6.931275 -0.554400 0.899648 7.106895 0.593966 1.300188 28.726276 10.245098 -6.644338 -0.000000 -0.000000 0.000000 0.877192 -0.972423 -13.661167 22.400529 -18.884580 -35.320476 -0.000086 -88.430780 -0.000000 -44.067025 -1.932311 -15.971419 5.344578 8.491947 -4.911378 6.377064 15.562192 1.627032 -4.822082 19.918191 18.061283 -0.000001 -0.000002 -0.000003 4.544324 11.720841 -59.281623 5.622629 5.846617 -87.758594 2.105175 4.498023 -50.143813 0.000000 0.000000 -0.000002 5.482460 8.480277 -67.979076 6.971081 5.743226 -101.054459 2.457727 4.769344 -54.505541 0.000004 -0.000002 0.000001 7.269323 9.718433 -61.592938 7.351136 5.656134 -104.879877 0.914086 3.144165 -32.414100 0.000001 0.000000 0.000004 2.313282 6.195357 -29.868236 4.012459 5.555625 -71.655433 0.304740 1.866550 -18.542956 -0.000003 0.000000 -0.000004 0.153798 7.555708 14.693986 33.033021 31.414564 25.741492 0.000132 98.091161 -0.000119 -34.590209 17.985456 23.059004 -4.641065 5.737694 -12.067285 6.358370 -14.447594 -2.112229 -2.916283 -51.629069 -24.519966 -0.000000 0.000000 0.000001 -1.747554 0.781616 24.100454 0.607746 -2.302204 29.571768 0.624068 -2.330728 29.975829 0.000001 0.000003 -0.000001 0.454853 -4.185390 24.092300 0.623778 -2.330219 29.968555 0.623771 -2.330221 29.968548 -0.000002 0.000002 -0.000008 0.319946 -3.850109 19.646848 0.623778 -2.330219 29.968558 0.623782 -2.330220 29.968558 0.000000 0.000001 -0.000003 0.310568 -3.823650 19.301807 0.443430 -1.985132 25.181342 0.443437 -1.985142 25.181342 -0.000000 0.000001 0.000008 -19.621474 13.466463 23.772601 14.776126 2.482894 -1.053559 27.339895 29.665820 -29.077652 1.062727 -0.000032 -0.000004 -0.000001 0.000004 -0.000001 -17.419829 -10.758139 -14.157077 7.809018 -0.689880 0.575243 37.130346 -28.427924 30.421311 -7.602137 -0.000005 0.000015 -0.000000 0.000001 0.000000 
0.194003 115.232292 9.033936 -81.999911 -4.191834 -2.416729 3.515336 -0.560548 -1.050849 6.919851 -0.569504 0.912416 6.922485 -0.570739 0.899862 7.126434 0.596819 1.299427 28.747235 10.232112 -6.670893 -0.000001 0.000000 -0.000000 0.881571 -0.870105 -13.633592 22.257087 -19.038865 -35.380295 0.002657 -88.259370 0.002644 -44.042255 -2.044317 -16.192809 5.343972 8.489686 -4.911767 6.377064 15.562188 1.627034 -4.822082 19.918187 18.061281 0.000006 -0.000000 -0.000002 4.570069 11.909992 -62.700078 6.017569 5.848691 -91.633517 2.470276 4.778256 -54.656601 -0.000000 0.000002 -0.000002 5.430900 8.384368 -70.363905 7.365664 5.652273 -105.027307 2.763415 4.972446 -58.104535 0.000003 0.000003 0.000004 7.270181 9.707563 -61.715923 7.496277 5.615764 -106.357643 0.923361 3.158684 -32.582676 0.000002 -0.000002 0.000004 2.313264 6.195367 -29.868246 4.012431 5.555634 -71.655453 0.304690 1.866419 -18.541510 0.000000 0.000005 -0.000001 0.152895 7.562531 14.689669 33.041300 31.436164 25.733346 -0.000237 98.073190 0.000240 -34.610105 17.994214 23.067014 -4.641069 5.737692 -12.067285 6.358369 -14.447590 -2.112225 -2.916288 -51.629069 -24.519976 0.000003 0.000001 0.000001 -1.747554 0.781614 24.100451 0.607749 -2.302206 29.571772 0.624072 -2.330731 29.975832 -0.000001 -0.000003 -0.000001 0.454852 -4.185390 24.092302 0.623775 -2.330220 29.968551 0.623772 -2.330221 29.968544 0.000001 0.000000 -0.000001 0.319946 -3.850109 19.646848 0.623777 -2.330220 29.968561 0.623780 -2.330219 29.968551 -0.000000 -0.000001 -0.000000 0.310570 -3.823648 19.301811 0.443431 -1.985129 25.181342 0.443438 -1.985142 25.181342 -0.000000 0.000001 -0.000001 -19.595078 13.469566 23.762459 14.785008 2.471726 -1.050870 27.334540 29.662774 -29.078601 1.097387 0.000006 0.000003 0.000001 0.000001 -0.000001 -17.404026 -10.757362 -14.176142 7.818358 -0.691693 0.573748 37.138658 -28.426090 30.435521 -7.554988 0.000002 0.000011 -0.000001 -0.000001 0.000001 
0.193737 115.227470 9.033546 -82.030408 -4.173799 -2.415033 3.509971 -0.563972 -1.052899 6.912431 -0.570934 0.904121 6.912326 -0.588359 0.900241 7.137046 0.597386 1.298120 28.827582 10.208747 -6.690322 0.000000 0.000000 -0.000000 0.883536 -0.798394 -13.597161 22.168940 -19.192285 -35.448743 -0.001583 -88.111162 -0.001647 -43.312511 -2.187366 -16.200574 5.343207 8.486665 -4.912272 6.377073 15.562195 1.627037 -4.822082 19.918194 18.061283 -0.000001 0.000001 -0.000002 4.573669 12.062636 -65.254336 6.360086 5.828950 -94.999428 2.755980 4.967836 -58.018823 -0.000000 0.000000 -0.000006 5.359932 8.339979 -71.087209 7.528453 5.606260 -106.686749 2.849138 5.024576 -59.088322 -0.000002 0.000003 0.000000 7.188244 9.724321 -61.051796 7.446334 5.630113 -105.847967 0.868816 3.071789 -31.578987 -0.000003 0.000003 0.000004 2.313265 6.195356 -29.868253 4.012440 5.555625 -71.655419 0.304599 1.866142 -18.538675 -0.000002 -0.000000 -0.000001 0.154368 7.569561 14.673521 33.039596 31.462006 25.746164 0.000160 98.052304 -0.000173 -34.622796 18.005299 23.075488 -4.641070 5.737692 -12.067281 6.358365 -14.447594 -2.112223 -2.916286 -51.629069 -24.519968 -0.000001 -0.000001 0.000001 -1.747555 0.781613 24.100445 0.607748 -2.302211 29.571772 0.624070 -2.330731 29.975832 0.000002 -0.000001 -0.000002 0.454853 -4.185390 24.092304 0.623776 -2.330218 29.968555 0.623774 -2.330222 29.968548 0.000001 0.000001 -0.000001 0.319945 -3.850110 19.646846 0.623779 -2.330218 29.968561 0.623783 -2.330223 29.968551 0.000001 0.000000 -0.000002 0.310567 -3.823651 19.301809 0.443427 -1.985130 25.181345 0.443441 -1.985139 25.181338 0.000001 0.000001 0.000002 -19.560767 13.478282 23.756682 14.785143 2.448534 -1.052211 27.338319 29.662429 -29.083181 1.159653 -0.000023 0.000004 0.000000 0.000000 -0.000001 -17.387966 -10.766926 -14.168876 7.849269 -0.692072 0.545929 37.126870 -28.420094 30.447122 -7.506960 0.000010 -0.000018 0.000000 -0.000000 0.000000 
0.194906 115.221420 9.024971 -82.067694 -4.153974 -2.413495 3.506717 -0.566857 -1.055948 6.905820 -0.570328 0.896145 6.900854 -0.606726 0.899983 7.126721 0.595889 1.294193 28.969339 10.176491 -6.706605 -0.000000 -0.000000 -0.000000 0.887434 -0.749076 -13.556181 22.121118 -19.346413 -35.504652 0.001595 -87.971669 0.001637 -42.009034 -2.461471 -16.110984 5.290868 8.483034 -4.823738 6.377071 15.562192 1.627042 -4.822080 19.918199 18.061286 0.000003 0.000001 0.000000 4.479434 12.082007 -65.939316 6.521977 5.812595 -96.595739 2.833661 5.015331 -58.911597 -0.000000 0.000001 0.000001 5.247709 8.311682 -70.678798 7.514979 5.610261 -106.548861 2.790132 4.988911 -58.412345 0.000003 -0.000001 0.000005 7.085289 9.746820 -60.189799 7.345331 5.657666 -104.820987 0.811799 2.977175 -30.498417 -0.000000 0.000000 0.000001 2.313278 6.195361 -29.868243 3.979084 5.544500 -71.310474 0.304382 1.865505 -18.532195 0.000000 0.000001 0.000001 0.157829 7.577145 14.649508 33.035252 31.493616 25.763552 -0.000037 98.028945 0.000035 -34.635657 18.019736 23.081612 -4.641070 5.737695 -12.067282 6.358370 -14.447594 -2.112222 -2.916284 -51.629069 -24.519964 0.000003 -0.000003 0.000001 -1.747557 0.781616 24.100454 0.607747 -2.302208 29.571775 0.624068 -2.330730 29.975832 -0.000001 -0.000001 0.000001 0.454852 -4.185389 24.092306 0.623778 -2.330216 29.968558 0.623771 -2.330220 29.968544 -0.000001 0.000002 -0.000004 0.319944 -3.850108 19.646846 0.623779 -2.330221 29.968565 0.623781 -2.330220 29.968555 -0.000002 -0.000001 -0.000005 0.310567 -3.823651 19.301812 0.443433 -1.985132 25.181343 0.443436 -1.985140 25.181347 0.000001 0.000000 0.000000 -19.510104 13.497748 23.745740 14.758432 2.417525 -1.054375 27.356528 29.660103 -29.085380 1.242145 0.000012 0.000010 0.000000 -0.000002 0.000001 -17.360792 -10.795374 -14.137361 7.872164 -0.681545 0.491922 37.113950 -28.415160 30.457545 -7.459288 0.000003 -0.000002 -0.000001 -0.000002 0.000000 
